<?xml version="1.0" standalone="no"?>
<!DOCTYPE svg PUBLIC "-//W3C//DTD SVG 20010904//EN"
 "http://www.w3.org/TR/2001/REC-SVG-20010904/DTD/svg10.dtd">
<svg version="1.0" xmlns="http://www.w3.org/2000/svg"
 width="512.000000pt" height="512.000000pt" viewBox="0 0 512.000000 512.000000"
 preserveAspectRatio="xMidYMid meet">

<g transform="translate(0.000000,512.000000) scale(0.100000,-0.100000)"
fill="#000000" stroke="none">
<path d="M2453 5105 c-29 -8 -78 -28 -110 -44 -32 -16 -539 -313 -1127 -659
-697 -410 -1085 -644 -1112 -671 -24 -23 -55 -67 -71 -99 -24 -49 -28 -69 -28
-142 1 -160 52 -225 287 -366 87 -52 158 -97 158 -99 0 -3 -66 -43 -147 -91
-166 -97 -231 -154 -271 -234 -23 -47 -27 -68 -27 -140 0 -160 57 -231 298
-374 81 -48 145 -91 142 -96 -3 -4 -66 -43 -141 -87 -162 -93 -233 -153 -271
-231 -24 -49 -28 -69 -28 -142 0 -73 4 -93 28 -142 16 -32 47 -76 71 -99 25
-25 237 -156 531 -331 634 -376 1649 -969 1712 -1001 124 -63 246 -72 367 -26
116 43 2244 1300 2305 1361 22 22 53 65 68 96 24 49 28 69 28 142 0 160 -62
238 -299 373 -75 44 -138 83 -141 87 -3 5 61 48 142 96 169 100 232 154 270
233 24 48 28 68 28 141 0 159 -60 234 -297 374 -82 48 -148 88 -148 91 0 2 71
47 158 99 235 141 286 206 287 366 0 73 -4 93 -28 142 -16 32 -47 76 -71 99
-44 43 -478 303 -1611 967 -352 206 -662 383 -690 394 -66 27 -193 33 -262 13z
m212 -248 c54 -27 1099 -638 1697 -993 268 -159 495 -300 504 -313 27 -38 22
-98 -12 -131 -40 -40 -2120 -1268 -2211 -1306 -42 -18 -124 -18 -166 0 -91 38
-2171 1266 -2211 1306 -34 33 -39 93 -12 131 15 22 2158 1292 2222 1317 67 26
123 23 189 -11z m-1455 -2277 c794 -468 1133 -663 1194 -689 87 -36 225 -36
312 0 62 26 403 223 1234 712 261 154 479 280 485 280 19 0 390 -224 419 -253
23 -22 29 -37 29 -70 0 -33 -6 -48 -29 -70 -16 -16 -231 -149 -479 -296 -550
-326 -1662 -977 -1718 -1005 -54 -28 -140 -28 -195 0 -56 29 -1163 676 -1717
1005 -247 147 -463 280 -479 296 -23 22 -29 37 -29 70 0 59 24 79 253 214
l195 115 45 -26 c25 -15 241 -142 480 -283z m-100 -873 c748 -441 1243 -726
1299 -749 79 -31 223 -31 302 0 57 23 571 319 1299 750 228 135 420 245 425
245 19 -1 390 -225 419 -253 34 -33 39 -93 12 -131 -9 -13 -247 -161 -529
-328 -616 -365 -1614 -949 -1677 -981 -31 -16 -62 -23 -100 -23 -38 0 -69 7
-100 23 -63 32 -1061 616 -1677 981 -282 167 -520 315 -529 328 -26 37 -22 98
10 129 26 27 417 262 426 257 3 -1 192 -113 420 -248z"/>
</g>
</svg>
